ISO-10303-21;
HEADER;
/* Generated by software containing ST-Developer
 * from STEP Tools, Inc. (www.steptools.com) 
 */
/* OPTION: using custom renumber hook */

FILE_DESCRIPTION(
/* description */ ('STEP AP242 Edition 2',
'CAx-IF Rec.Pracs.---Representation and Presentation of Product Manufa
cturing Information (PMI)---4.0---2014-10-13',
'CAx-IF Rec.Pracs.---3D Tessellated Geometry---0.4---2014-09-14','2;1',
'CAx-IF Rec.Pracs.---User Defined Attributes---1.5---2016-08-15'),
/* implementation_level */ '2;1');

FILE_NAME(
/* name */ '69dc540098903f0779507b6c',
/* time_stamp */ '2026-04-13T02:25:04Z',
/* author */ (''),
/* organization */ (''),
/* preprocessor_version */ 'ST-DEVELOPER v20',
/* originating_system */ 'ONSHAPE BY PTC INC, 1.213',
/* authorisation */ '  ');

FILE_SCHEMA (('AP242_MANAGED_MODEL_BASED_3D_ENGINEERING_MIM_LF { 1 0 10303 442 3 1 4 }'));
ENDSEC;

DATA;
#10=CONTEXT_DEPENDENT_SHAPE_REPRESENTATION(#12,#912);
#11=NEXT_ASSEMBLY_USAGE_OCCURRENCE('NAUO1','Part 1','Part 1',#913,#914,
'');
#12=(
REPRESENTATION_RELATIONSHIP(' ',' ',#553,#552)
REPRESENTATION_RELATIONSHIP_WITH_TRANSFORMATION(#13)
SHAPE_REPRESENTATION_RELATIONSHIP()
);
#13=ITEM_DEFINED_TRANSFORMATION(' ',' ',#554,#601);
#14=SHAPE_REPRESENTATION_RELATIONSHIP('','',#553,#15);
#15=ADVANCED_BREP_SHAPE_REPRESENTATION('',(#549),#904);
#16=VERTEX_LOOP('',#280);
#17=VERTEX_LOOP('',#290);
#18=VERTEX_LOOP('',#292);
#19=VERTEX_LOOP('',#294);
#20=CONICAL_SURFACE('',#572,0.00145,1.02974425867665);
#21=CONICAL_SURFACE('',#580,0.00145,1.02974425867665);
#22=CONICAL_SURFACE('',#583,0.00145,1.02974425867665);
#23=CONICAL_SURFACE('',#586,0.00145,1.02974425867665);
#24=CIRCLE('',#558,0.001);
#25=CIRCLE('',#559,0.001);
#26=CIRCLE('',#561,0.001);
#27=CIRCLE('',#562,0.001);
#28=CIRCLE('',#565,0.001);
#29=CIRCLE('',#566,0.001);
#30=CIRCLE('',#569,0.001);
#31=CIRCLE('',#570,0.001);
#32=CIRCLE('',#573,0.00145);
#33=CIRCLE('',#575,0.00145);
#34=CIRCLE('',#577,0.00145);
#35=CIRCLE('',#578,0.00145);
#36=CIRCLE('',#579,0.00145);
#37=CIRCLE('',#581,0.00145);
#38=CIRCLE('',#584,0.00145);
#39=CIRCLE('',#587,0.00145);
#40=CYLINDRICAL_SURFACE('',#557,0.001);
#41=CYLINDRICAL_SURFACE('',#560,0.001);
#42=CYLINDRICAL_SURFACE('',#564,0.001);
#43=CYLINDRICAL_SURFACE('',#568,0.001);
#44=CYLINDRICAL_SURFACE('',#574,0.00145);
#45=CYLINDRICAL_SURFACE('',#582,0.00145);
#46=CYLINDRICAL_SURFACE('',#585,0.00145);
#47=CYLINDRICAL_SURFACE('',#588,0.00145);
#48=ORIENTED_EDGE('',*,*,#184,.F.);
#49=ORIENTED_EDGE('',*,*,#185,.F.);
#50=ORIENTED_EDGE('',*,*,#186,.T.);
#51=ORIENTED_EDGE('',*,*,#187,.T.);
#52=ORIENTED_EDGE('',*,*,#188,.F.);
#53=ORIENTED_EDGE('',*,*,#189,.F.);
#54=ORIENTED_EDGE('',*,*,#190,.T.);
#55=ORIENTED_EDGE('',*,*,#191,.F.);
#56=ORIENTED_EDGE('',*,*,#192,.F.);
#57=ORIENTED_EDGE('',*,*,#193,.T.);
#58=ORIENTED_EDGE('',*,*,#194,.T.);
#59=ORIENTED_EDGE('',*,*,#195,.F.);
#60=ORIENTED_EDGE('',*,*,#196,.F.);
#61=ORIENTED_EDGE('',*,*,#192,.T.);
#62=ORIENTED_EDGE('',*,*,#197,.T.);
#63=ORIENTED_EDGE('',*,*,#198,.F.);
#64=ORIENTED_EDGE('',*,*,#199,.F.);
#65=ORIENTED_EDGE('',*,*,#200,.T.);
#66=ORIENTED_EDGE('',*,*,#201,.T.);
#67=ORIENTED_EDGE('',*,*,#202,.F.);
#68=ORIENTED_EDGE('',*,*,#203,.F.);
#69=ORIENTED_EDGE('',*,*,#202,.T.);
#70=ORIENTED_EDGE('',*,*,#204,.T.);
#71=ORIENTED_EDGE('',*,*,#205,.F.);
#72=ORIENTED_EDGE('',*,*,#206,.F.);
#73=ORIENTED_EDGE('',*,*,#205,.T.);
#74=ORIENTED_EDGE('',*,*,#207,.T.);
#75=ORIENTED_EDGE('',*,*,#208,.F.);
#76=ORIENTED_EDGE('',*,*,#209,.F.);
#77=ORIENTED_EDGE('',*,*,#208,.T.);
#78=ORIENTED_EDGE('',*,*,#210,.T.);
#79=ORIENTED_EDGE('',*,*,#211,.F.);
#80=ORIENTED_EDGE('',*,*,#212,.F.);
#81=ORIENTED_EDGE('',*,*,#211,.T.);
#82=ORIENTED_EDGE('',*,*,#213,.T.);
#83=ORIENTED_EDGE('',*,*,#194,.F.);
#84=ORIENTED_EDGE('',*,*,#214,.F.);
#85=ORIENTED_EDGE('',*,*,#215,.T.);
#86=ORIENTED_EDGE('',*,*,#216,.T.);
#87=ORIENTED_EDGE('',*,*,#217,.F.);
#88=ORIENTED_EDGE('',*,*,#197,.F.);
#89=ORIENTED_EDGE('',*,*,#195,.T.);
#90=ORIENTED_EDGE('',*,*,#213,.F.);
#91=ORIENTED_EDGE('',*,*,#210,.F.);
#92=ORIENTED_EDGE('',*,*,#207,.F.);
#93=ORIENTED_EDGE('',*,*,#204,.F.);
#94=ORIENTED_EDGE('',*,*,#201,.F.);
#95=ORIENTED_EDGE('',*,*,#218,.T.);
#96=ORIENTED_EDGE('',*,*,#219,.F.);
#97=ORIENTED_EDGE('',*,*,#219,.T.);
#98=ORIENTED_EDGE('',*,*,#220,.T.);
#99=ORIENTED_EDGE('',*,*,#221,.F.);
#100=ORIENTED_EDGE('',*,*,#214,.T.);
#101=ORIENTED_EDGE('',*,*,#222,.T.);
#102=ORIENTED_EDGE('',*,*,#223,.F.);
#103=ORIENTED_EDGE('',*,*,#220,.F.);
#104=ORIENTED_EDGE('',*,*,#224,.F.);
#105=ORIENTED_EDGE('',*,*,#225,.F.);
#106=ORIENTED_EDGE('',*,*,#226,.F.);
#107=ORIENTED_EDGE('',*,*,#227,.F.);
#108=ORIENTED_EDGE('',*,*,#187,.F.);
#109=ORIENTED_EDGE('',*,*,#228,.F.);
#110=ORIENTED_EDGE('',*,*,#229,.T.);
#111=ORIENTED_EDGE('',*,*,#230,.F.);
#112=ORIENTED_EDGE('',*,*,#230,.T.);
#113=ORIENTED_EDGE('',*,*,#224,.T.);
#114=ORIENTED_EDGE('',*,*,#231,.F.);
#115=ORIENTED_EDGE('',*,*,#231,.T.);
#116=ORIENTED_EDGE('',*,*,#225,.T.);
#117=ORIENTED_EDGE('',*,*,#232,.F.);
#118=ORIENTED_EDGE('',*,*,#232,.T.);
#119=ORIENTED_EDGE('',*,*,#226,.T.);
#120=ORIENTED_EDGE('',*,*,#233,.T.);
#121=ORIENTED_EDGE('',*,*,#198,.T.);
#122=ORIENTED_EDGE('',*,*,#218,.F.);
#123=ORIENTED_EDGE('',*,*,#200,.F.);
#124=ORIENTED_EDGE('',*,*,#234,.T.);
#125=ORIENTED_EDGE('',*,*,#235,.T.);
#126=ORIENTED_EDGE('',*,*,#189,.T.);
#127=ORIENTED_EDGE('',*,*,#236,.T.);
#128=ORIENTED_EDGE('',*,*,#237,.F.);
#129=ORIENTED_EDGE('',*,*,#238,.F.);
#130=ORIENTED_EDGE('',*,*,#185,.T.);
#131=ORIENTED_EDGE('',*,*,#239,.F.);
#132=ORIENTED_EDGE('',*,*,#228,.T.);
#133=ORIENTED_EDGE('',*,*,#186,.F.);
#134=ORIENTED_EDGE('',*,*,#238,.T.);
#135=ORIENTED_EDGE('',*,*,#240,.T.);
#136=ORIENTED_EDGE('',*,*,#229,.F.);
#137=ORIENTED_EDGE('',*,*,#240,.F.);
#138=ORIENTED_EDGE('',*,*,#237,.T.);
#139=ORIENTED_EDGE('',*,*,#241,.T.);
#140=ORIENTED_EDGE('',*,*,#188,.T.);
#141=ORIENTED_EDGE('',*,*,#227,.T.);
#142=ORIENTED_EDGE('',*,*,#241,.F.);
#143=ORIENTED_EDGE('',*,*,#236,.F.);
#144=ORIENTED_EDGE('',*,*,#242,.T.);
#145=ORIENTED_EDGE('',*,*,#243,.T.);
#146=ORIENTED_EDGE('',*,*,#244,.F.);
#147=ORIENTED_EDGE('',*,*,#216,.F.);
#148=ORIENTED_EDGE('',*,*,#245,.F.);
#149=ORIENTED_EDGE('',*,*,#223,.T.);
#150=ORIENTED_EDGE('',*,*,#246,.T.);
#151=ORIENTED_EDGE('',*,*,#243,.F.);
#152=ORIENTED_EDGE('',*,*,#222,.F.);
#153=ORIENTED_EDGE('',*,*,#217,.T.);
#154=ORIENTED_EDGE('',*,*,#244,.T.);
#155=ORIENTED_EDGE('',*,*,#246,.F.);
#156=ORIENTED_EDGE('',*,*,#215,.F.);
#157=ORIENTED_EDGE('',*,*,#221,.T.);
#158=ORIENTED_EDGE('',*,*,#245,.T.);
#159=ORIENTED_EDGE('',*,*,#242,.F.);
#160=ORIENTED_EDGE('',*,*,#196,.T.);
#161=ORIENTED_EDGE('',*,*,#233,.F.);
#162=ORIENTED_EDGE('',*,*,#247,.T.);
#163=ORIENTED_EDGE('',*,*,#248,.T.);
#164=ORIENTED_EDGE('',*,*,#249,.F.);
#165=ORIENTED_EDGE('',*,*,#234,.F.);
#166=ORIENTED_EDGE('',*,*,#199,.T.);
#167=ORIENTED_EDGE('',*,*,#203,.T.);
#168=ORIENTED_EDGE('',*,*,#206,.T.);
#169=ORIENTED_EDGE('',*,*,#209,.T.);
#170=ORIENTED_EDGE('',*,*,#212,.T.);
#171=ORIENTED_EDGE('',*,*,#193,.F.);
#172=ORIENTED_EDGE('',*,*,#184,.T.);
#173=ORIENTED_EDGE('',*,*,#250,.F.);
#174=ORIENTED_EDGE('',*,*,#247,.F.);
#175=ORIENTED_EDGE('',*,*,#239,.T.);
#176=ORIENTED_EDGE('',*,*,#191,.T.);
#177=ORIENTED_EDGE('',*,*,#251,.F.);
#178=ORIENTED_EDGE('',*,*,#248,.F.);
#179=ORIENTED_EDGE('',*,*,#250,.T.);
#180=ORIENTED_EDGE('',*,*,#190,.F.);
#181=ORIENTED_EDGE('',*,*,#235,.F.);
#182=ORIENTED_EDGE('',*,*,#249,.T.);
#183=ORIENTED_EDGE('',*,*,#251,.T.);
#184=EDGE_CURVE('',#252,#253,#304,.T.);
#185=EDGE_CURVE('',#254,#252,#305,.T.);
#186=EDGE_CURVE('',#254,#255,#306,.T.);
#187=EDGE_CURVE('',#255,#256,#307,.T.);
#188=EDGE_CURVE('',#257,#256,#308,.T.);
#189=EDGE_CURVE('',#258,#257,#309,.T.);
#190=EDGE_CURVE('',#258,#259,#310,.T.);
#191=EDGE_CURVE('',#253,#259,#311,.T.);
#192=EDGE_CURVE('',#260,#261,#312,.T.);
#193=EDGE_CURVE('',#260,#262,#313,.T.);
#194=EDGE_CURVE('',#262,#263,#314,.T.);
#195=EDGE_CURVE('',#261,#263,#315,.T.);
#196=EDGE_CURVE('',#260,#264,#24,.F.);
#197=EDGE_CURVE('',#261,#265,#25,.T.);
#198=EDGE_CURVE('',#264,#265,#316,.T.);
#199=EDGE_CURVE('',#266,#267,#26,.F.);
#200=EDGE_CURVE('',#266,#268,#317,.T.);
#201=EDGE_CURVE('',#268,#269,#27,.T.);
#202=EDGE_CURVE('',#267,#269,#318,.T.);
#203=EDGE_CURVE('',#267,#270,#319,.T.);
#204=EDGE_CURVE('',#269,#271,#320,.T.);
#205=EDGE_CURVE('',#270,#271,#321,.T.);
#206=EDGE_CURVE('',#270,#272,#28,.F.);
#207=EDGE_CURVE('',#271,#273,#29,.T.);
#208=EDGE_CURVE('',#272,#273,#322,.T.);
#209=EDGE_CURVE('',#272,#274,#323,.T.);
#210=EDGE_CURVE('',#273,#275,#324,.T.);
#211=EDGE_CURVE('',#274,#275,#325,.T.);
#212=EDGE_CURVE('',#274,#262,#30,.F.);
#213=EDGE_CURVE('',#275,#263,#31,.T.);
#214=EDGE_CURVE('',#276,#277,#326,.T.);
#215=EDGE_CURVE('',#276,#278,#327,.T.);
#216=EDGE_CURVE('',#278,#279,#328,.T.);
#217=EDGE_CURVE('',#277,#279,#329,.T.);
#218=EDGE_CURVE('',#268,#265,#330,.T.);
#219=EDGE_CURVE('',#281,#281,#32,.T.);
#220=EDGE_CURVE('',#282,#282,#33,.T.);
#221=EDGE_CURVE('',#276,#283,#331,.T.);
#222=EDGE_CURVE('',#277,#284,#332,.T.);
#223=EDGE_CURVE('',#283,#284,#333,.T.);
#224=EDGE_CURVE('',#285,#285,#34,.T.);
#225=EDGE_CURVE('',#286,#286,#35,.T.);
#226=EDGE_CURVE('',#287,#287,#36,.T.);
#227=EDGE_CURVE('',#256,#288,#334,.T.);
#228=EDGE_CURVE('',#289,#255,#335,.T.);
#229=EDGE_CURVE('',#289,#288,#336,.T.);
#230=EDGE_CURVE('',#291,#291,#37,.T.);
#231=EDGE_CURVE('',#293,#293,#38,.T.);
#232=EDGE_CURVE('',#295,#295,#39,.T.);
#233=EDGE_CURVE('',#296,#264,#337,.T.);
#234=EDGE_CURVE('',#266,#297,#338,.T.);
#235=EDGE_CURVE('',#297,#258,#339,.T.);
#236=EDGE_CURVE('',#257,#298,#340,.T.);
#237=EDGE_CURVE('',#299,#298,#341,.T.);
#238=EDGE_CURVE('',#254,#299,#342,.T.);
#239=EDGE_CURVE('',#296,#252,#343,.T.);
#240=EDGE_CURVE('',#299,#289,#344,.T.);
#241=EDGE_CURVE('',#298,#288,#345,.T.);
#242=EDGE_CURVE('',#278,#300,#346,.T.);
#243=EDGE_CURVE('',#300,#301,#347,.T.);
#244=EDGE_CURVE('',#279,#301,#348,.T.);
#245=EDGE_CURVE('',#283,#300,#349,.T.);
#246=EDGE_CURVE('',#284,#301,#350,.T.);
#247=EDGE_CURVE('',#296,#302,#351,.T.);
#248=EDGE_CURVE('',#302,#303,#352,.T.);
#249=EDGE_CURVE('',#297,#303,#353,.T.);
#250=EDGE_CURVE('',#302,#253,#354,.T.);
#251=EDGE_CURVE('',#303,#259,#355,.T.);
#252=VERTEX_POINT('',#753);
#253=VERTEX_POINT('',#754);
#254=VERTEX_POINT('',#756);
#255=VERTEX_POINT('',#758);
#256=VERTEX_POINT('',#760);
#257=VERTEX_POINT('',#762);
#258=VERTEX_POINT('',#764);
#259=VERTEX_POINT('',#766);
#260=VERTEX_POINT('',#770);
#261=VERTEX_POINT('',#771);
#262=VERTEX_POINT('',#773);
#263=VERTEX_POINT('',#775);
#264=VERTEX_POINT('',#779);
#265=VERTEX_POINT('',#781);
#266=VERTEX_POINT('',#785);
#267=VERTEX_POINT('',#786);
#268=VERTEX_POINT('',#788);
#269=VERTEX_POINT('',#790);
#270=VERTEX_POINT('',#794);
#271=VERTEX_POINT('',#796);
#272=VERTEX_POINT('',#800);
#273=VERTEX_POINT('',#802);
#274=VERTEX_POINT('',#806);
#275=VERTEX_POINT('',#808);
#276=VERTEX_POINT('',#815);
#277=VERTEX_POINT('',#816);
#278=VERTEX_POINT('',#818);
#279=VERTEX_POINT('',#820);
#280=VERTEX_POINT('',#824);
#281=VERTEX_POINT('',#826);
#282=VERTEX_POINT('',#829);
#283=VERTEX_POINT('',#832);
#284=VERTEX_POINT('',#834);
#285=VERTEX_POINT('',#837);
#286=VERTEX_POINT('',#839);
#287=VERTEX_POINT('',#841);
#288=VERTEX_POINT('',#843);
#289=VERTEX_POINT('',#845);
#290=VERTEX_POINT('',#848);
#291=VERTEX_POINT('',#850);
#292=VERTEX_POINT('',#853);
#293=VERTEX_POINT('',#855);
#294=VERTEX_POINT('',#858);
#295=VERTEX_POINT('',#860);
#296=VERTEX_POINT('',#864);
#297=VERTEX_POINT('',#866);
#298=VERTEX_POINT('',#869);
#299=VERTEX_POINT('',#871);
#300=VERTEX_POINT('',#881);
#301=VERTEX_POINT('',#883);
#302=VERTEX_POINT('',#892);
#303=VERTEX_POINT('',#894);
#304=LINE('',#752,#356);
#305=LINE('',#755,#357);
#306=LINE('',#757,#358);
#307=LINE('',#759,#359);
#308=LINE('',#761,#360);
#309=LINE('',#763,#361);
#310=LINE('',#765,#362);
#311=LINE('',#767,#363);
#312=LINE('',#769,#364);
#313=LINE('',#772,#365);
#314=LINE('',#774,#366);
#315=LINE('',#776,#367);
#316=LINE('',#782,#368);
#317=LINE('',#787,#369);
#318=LINE('',#791,#370);
#319=LINE('',#793,#371);
#320=LINE('',#795,#372);
#321=LINE('',#797,#373);
#322=LINE('',#803,#374);
#323=LINE('',#805,#375);
#324=LINE('',#807,#376);
#325=LINE('',#809,#377);
#326=LINE('',#814,#378);
#327=LINE('',#817,#379);
#328=LINE('',#819,#380);
#329=LINE('',#821,#381);
#330=LINE('',#822,#382);
#331=LINE('',#831,#383);
#332=LINE('',#833,#384);
#333=LINE('',#835,#385);
#334=LINE('',#842,#386);
#335=LINE('',#844,#387);
#336=LINE('',#846,#388);
#337=LINE('',#863,#389);
#338=LINE('',#865,#390);
#339=LINE('',#867,#391);
#340=LINE('',#868,#392);
#341=LINE('',#870,#393);
#342=LINE('',#872,#394);
#343=LINE('',#873,#395);
#344=LINE('',#875,#396);
#345=LINE('',#877,#397);
#346=LINE('',#880,#398);
#347=LINE('',#882,#399);
#348=LINE('',#884,#400);
#349=LINE('',#886,#401);
#350=LINE('',#887,#402);
#351=LINE('',#891,#403);
#352=LINE('',#893,#404);
#353=LINE('',#895,#405);
#354=LINE('',#897,#406);
#355=LINE('',#899,#407);
#356=VECTOR('',#606,1.);
#357=VECTOR('',#607,1.);
#358=VECTOR('',#608,1.);
#359=VECTOR('',#609,1.);
#360=VECTOR('',#610,1.);
#361=VECTOR('',#611,1.);
#362=VECTOR('',#612,1.);
#363=VECTOR('',#613,1.);
#364=VECTOR('',#616,1.);
#365=VECTOR('',#617,1.);
#366=VECTOR('',#618,1.);
#367=VECTOR('',#619,1.);
#368=VECTOR('',#626,1.);
#369=VECTOR('',#631,1.);
#370=VECTOR('',#634,1.);
#371=VECTOR('',#637,1.);
#372=VECTOR('',#638,1.);
#373=VECTOR('',#639,1.);
#374=VECTOR('',#646,1.);
#375=VECTOR('',#649,1.);
#376=VECTOR('',#650,1.);
#377=VECTOR('',#651,1.);
#378=VECTOR('',#660,1.);
#379=VECTOR('',#661,1.);
#380=VECTOR('',#662,1.);
#381=VECTOR('',#663,1.);
#382=VECTOR('',#664,1.);
#383=VECTOR('',#675,1.);
#384=VECTOR('',#676,1.);
#385=VECTOR('',#677,1.);
#386=VECTOR('',#684,1.);
#387=VECTOR('',#685,1.);
#388=VECTOR('',#686,1.);
#389=VECTOR('',#707,1.);
#390=VECTOR('',#708,1.);
#391=VECTOR('',#709,1.);
#392=VECTOR('',#710,1.);
#393=VECTOR('',#711,1.);
#394=VECTOR('',#712,1.);
#395=VECTOR('',#713,1.);
#396=VECTOR('',#716,1.);
#397=VECTOR('',#719,1.);
#398=VECTOR('',#724,1.);
#399=VECTOR('',#725,1.);
#400=VECTOR('',#726,1.);
#401=VECTOR('',#729,1.);
#402=VECTOR('',#730,1.);
#403=VECTOR('',#737,1.);
#404=VECTOR('',#738,1.);
#405=VECTOR('',#739,1.);
#406=VECTOR('',#742,1.);
#407=VECTOR('',#745,1.);
#408=EDGE_LOOP('',(#48,#49,#50,#51,#52,#53,#54,#55));
#409=EDGE_LOOP('',(#56,#57,#58,#59));
#410=EDGE_LOOP('',(#60,#61,#62,#63));
#411=EDGE_LOOP('',(#64,#65,#66,#67));
#412=EDGE_LOOP('',(#68,#69,#70,#71));
#413=EDGE_LOOP('',(#72,#73,#74,#75));
#414=EDGE_LOOP('',(#76,#77,#78,#79));
#415=EDGE_LOOP('',(#80,#81,#82,#83));
#416=EDGE_LOOP('',(#84,#85,#86,#87));
#417=EDGE_LOOP('',(#88,#89,#90,#91,#92,#93,#94,#95));
#418=EDGE_LOOP('',(#96));
#419=EDGE_LOOP('',(#97));
#420=EDGE_LOOP('',(#98));
#421=EDGE_LOOP('',(#99,#100,#101,#102));
#422=EDGE_LOOP('',(#103));
#423=EDGE_LOOP('',(#104));
#424=EDGE_LOOP('',(#105));
#425=EDGE_LOOP('',(#106));
#426=EDGE_LOOP('',(#107,#108,#109,#110));
#427=EDGE_LOOP('',(#111));
#428=EDGE_LOOP('',(#112));
#429=EDGE_LOOP('',(#113));
#430=EDGE_LOOP('',(#114));
#431=EDGE_LOOP('',(#115));
#432=EDGE_LOOP('',(#116));
#433=EDGE_LOOP('',(#117));
#434=EDGE_LOOP('',(#118));
#435=EDGE_LOOP('',(#119));
#436=EDGE_LOOP('',(#120,#121,#122,#123,#124,#125,#126,#127,#128,#129,#130,
#131));
#437=EDGE_LOOP('',(#132,#133,#134,#135));
#438=EDGE_LOOP('',(#136,#137,#138,#139));
#439=EDGE_LOOP('',(#140,#141,#142,#143));
#440=EDGE_LOOP('',(#144,#145,#146,#147));
#441=EDGE_LOOP('',(#148,#149,#150,#151));
#442=EDGE_LOOP('',(#152,#153,#154,#155));
#443=EDGE_LOOP('',(#156,#157,#158,#159));
#444=EDGE_LOOP('',(#160,#161,#162,#163,#164,#165,#166,#167,#168,#169,#170,
#171));
#445=EDGE_LOOP('',(#172,#173,#174,#175));
#446=EDGE_LOOP('',(#176,#177,#178,#179));
#447=EDGE_LOOP('',(#180,#181,#182,#183));
#448=FACE_BOUND('',#408,.T.);
#449=FACE_BOUND('',#409,.T.);
#450=FACE_BOUND('',#410,.T.);
#451=FACE_BOUND('',#411,.T.);
#452=FACE_BOUND('',#412,.T.);
#453=FACE_BOUND('',#413,.T.);
#454=FACE_BOUND('',#414,.T.);
#455=FACE_BOUND('',#415,.T.);
#456=FACE_BOUND('',#416,.T.);
#457=FACE_BOUND('',#417,.T.);
#458=FACE_BOUND('',#16,.T.);
#459=FACE_BOUND('',#418,.T.);
#460=FACE_BOUND('',#419,.T.);
#461=FACE_BOUND('',#420,.T.);
#462=FACE_BOUND('',#421,.T.);
#463=FACE_BOUND('',#422,.T.);
#464=FACE_BOUND('',#423,.T.);
#465=FACE_BOUND('',#424,.T.);
#466=FACE_BOUND('',#425,.T.);
#467=FACE_BOUND('',#426,.T.);
#468=FACE_BOUND('',#17,.T.);
#469=FACE_BOUND('',#427,.T.);
#470=FACE_BOUND('',#428,.T.);
#471=FACE_BOUND('',#429,.T.);
#472=FACE_BOUND('',#18,.T.);
#473=FACE_BOUND('',#430,.T.);
#474=FACE_BOUND('',#431,.T.);
#475=FACE_BOUND('',#432,.T.);
#476=FACE_BOUND('',#19,.T.);
#477=FACE_BOUND('',#433,.T.);
#478=FACE_BOUND('',#434,.T.);
#479=FACE_BOUND('',#435,.T.);
#480=FACE_BOUND('',#436,.T.);
#481=FACE_BOUND('',#437,.T.);
#482=FACE_BOUND('',#438,.T.);
#483=FACE_BOUND('',#439,.T.);
#484=FACE_BOUND('',#440,.T.);
#485=FACE_BOUND('',#441,.T.);
#486=FACE_BOUND('',#442,.T.);
#487=FACE_BOUND('',#443,.T.);
#488=FACE_BOUND('',#444,.T.);
#489=FACE_BOUND('',#445,.T.);
#490=FACE_BOUND('',#446,.T.);
#491=FACE_BOUND('',#447,.T.);
#492=PLANE('',#555);
#493=PLANE('',#556);
#494=PLANE('',#563);
#495=PLANE('',#567);
#496=PLANE('',#571);
#497=PLANE('',#576);
#498=PLANE('',#589);
#499=PLANE('',#590);
#500=PLANE('',#591);
#501=PLANE('',#592);
#502=PLANE('',#593);
#503=PLANE('',#594);
#504=PLANE('',#595);
#505=PLANE('',#596);
#506=PLANE('',#597);
#507=PLANE('',#598);
#508=PLANE('',#599);
#509=PLANE('',#600);
#510=ADVANCED_FACE('',(#448),#492,.F.);
#511=ADVANCED_FACE('',(#449),#493,.T.);
#512=ADVANCED_FACE('',(#450),#40,.F.);
#513=ADVANCED_FACE('',(#451),#41,.F.);
#514=ADVANCED_FACE('',(#452),#494,.F.);
#515=ADVANCED_FACE('',(#453),#42,.F.);
#516=ADVANCED_FACE('',(#454),#495,.F.);
#517=ADVANCED_FACE('',(#455),#43,.F.);
#518=ADVANCED_FACE('',(#456,#457),#496,.F.);
#519=ADVANCED_FACE('',(#458,#459),#20,.F.);
#520=ADVANCED_FACE('',(#460,#461),#44,.F.);
#521=ADVANCED_FACE('',(#462,#463,#464,#465,#466,#467),#497,.T.);
#522=ADVANCED_FACE('',(#468,#469),#21,.F.);
#523=ADVANCED_FACE('',(#470,#471),#45,.F.);
#524=ADVANCED_FACE('',(#472,#473),#22,.F.);
#525=ADVANCED_FACE('',(#474,#475),#46,.F.);
#526=ADVANCED_FACE('',(#476,#477),#23,.F.);
#527=ADVANCED_FACE('',(#478,#479),#47,.F.);
#528=ADVANCED_FACE('',(#480),#498,.T.);
#529=ADVANCED_FACE('',(#481),#499,.T.);
#530=ADVANCED_FACE('',(#482),#500,.T.);
#531=ADVANCED_FACE('',(#483),#501,.F.);
#532=ADVANCED_FACE('',(#484),#502,.F.);
#533=ADVANCED_FACE('',(#485),#503,.T.);
#534=ADVANCED_FACE('',(#486),#504,.F.);
#535=ADVANCED_FACE('',(#487),#505,.T.);
#536=ADVANCED_FACE('',(#488),#506,.T.);
#537=ADVANCED_FACE('',(#489),#507,.F.);
#538=ADVANCED_FACE('',(#490),#508,.F.);
#539=ADVANCED_FACE('',(#491),#509,.T.);
#540=CLOSED_SHELL('',(#510,#511,#512,#513,#514,#515,#516,#517,#518,#519,
#520,#521,#522,#523,#524,#525,#526,#527,#528,#529,#530,#531,#532,#533,#534,
#535,#536,#537,#538,#539));
#541=STYLED_ITEM('',(#542),#549);
#542=PRESENTATION_STYLE_ASSIGNMENT((#543));
#543=SURFACE_STYLE_USAGE(.BOTH.,#544);
#544=SURFACE_SIDE_STYLE('',(#545));
#545=SURFACE_STYLE_FILL_AREA(#546);
#546=FILL_AREA_STYLE('',(#547));
#547=FILL_AREA_STYLE_COLOUR('',#548);
#548=COLOUR_RGB('',0.501960784313726,0.501960784313726,0.501960784313726);
#549=MANIFOLD_SOLID_BREP('Part 1',#540);
#550=SHAPE_DEFINITION_REPRESENTATION(#910,#552);
#551=SHAPE_DEFINITION_REPRESENTATION(#911,#553);
#552=SHAPE_REPRESENTATION('Bottom Part',(#554,#601),#903);
#553=SHAPE_REPRESENTATION('Part 1',(#554),#904);
#554=AXIS2_PLACEMENT_3D('',#750,#602,#603);
#555=AXIS2_PLACEMENT_3D('',#751,#604,#605);
#556=AXIS2_PLACEMENT_3D('',#768,#614,#615);
#557=AXIS2_PLACEMENT_3D('',#777,#620,#621);
#558=AXIS2_PLACEMENT_3D('',#778,#622,#623);
#559=AXIS2_PLACEMENT_3D('',#780,#624,#625);
#560=AXIS2_PLACEMENT_3D('',#783,#627,#628);
#561=AXIS2_PLACEMENT_3D('',#784,#629,#630);
#562=AXIS2_PLACEMENT_3D('',#789,#632,#633);
#563=AXIS2_PLACEMENT_3D('',#792,#635,#636);
#564=AXIS2_PLACEMENT_3D('',#798,#640,#641);
#565=AXIS2_PLACEMENT_3D('',#799,#642,#643);
#566=AXIS2_PLACEMENT_3D('',#801,#644,#645);
#567=AXIS2_PLACEMENT_3D('',#804,#647,#648);
#568=AXIS2_PLACEMENT_3D('',#810,#652,#653);
#569=AXIS2_PLACEMENT_3D('',#811,#654,#655);
#570=AXIS2_PLACEMENT_3D('',#812,#656,#657);
#571=AXIS2_PLACEMENT_3D('',#813,#658,#659);
#572=AXIS2_PLACEMENT_3D('',#823,#665,#666);
#573=AXIS2_PLACEMENT_3D('',#825,#667,#668);
#574=AXIS2_PLACEMENT_3D('',#827,#669,#670);
#575=AXIS2_PLACEMENT_3D('',#828,#671,#672);
#576=AXIS2_PLACEMENT_3D('',#830,#673,#674);
#577=AXIS2_PLACEMENT_3D('',#836,#678,#679);
#578=AXIS2_PLACEMENT_3D('',#838,#680,#681);
#579=AXIS2_PLACEMENT_3D('',#840,#682,#683);
#580=AXIS2_PLACEMENT_3D('',#847,#687,#688);
#581=AXIS2_PLACEMENT_3D('',#849,#689,#690);
#582=AXIS2_PLACEMENT_3D('',#851,#691,#692);
#583=AXIS2_PLACEMENT_3D('',#852,#693,#694);
#584=AXIS2_PLACEMENT_3D('',#854,#695,#696);
#585=AXIS2_PLACEMENT_3D('',#856,#697,#698);
#586=AXIS2_PLACEMENT_3D('',#857,#699,#700);
#587=AXIS2_PLACEMENT_3D('',#859,#701,#702);
#588=AXIS2_PLACEMENT_3D('',#861,#703,#704);
#589=AXIS2_PLACEMENT_3D('',#862,#705,#706);
#590=AXIS2_PLACEMENT_3D('',#874,#714,#715);
#591=AXIS2_PLACEMENT_3D('',#876,#717,#718);
#592=AXIS2_PLACEMENT_3D('',#878,#720,#721);
#593=AXIS2_PLACEMENT_3D('',#879,#722,#723);
#594=AXIS2_PLACEMENT_3D('',#885,#727,#728);
#595=AXIS2_PLACEMENT_3D('',#888,#731,#732);
#596=AXIS2_PLACEMENT_3D('',#889,#733,#734);
#597=AXIS2_PLACEMENT_3D('',#890,#735,#736);
#598=AXIS2_PLACEMENT_3D('',#896,#740,#741);
#599=AXIS2_PLACEMENT_3D('',#898,#743,#744);
#600=AXIS2_PLACEMENT_3D('',#900,#746,#747);
#601=AXIS2_PLACEMENT_3D('',#901,#748,#749);
#602=DIRECTION('',(0.,0.,1.));
#603=DIRECTION('',(1.,0.,0.));
#604=DIRECTION('',(-1.,0.,0.));
#605=DIRECTION('',(0.,0.,1.));
#606=DIRECTION('',(0.,0.,1.));
#607=DIRECTION('',(0.,-1.,0.));
#608=DIRECTION('',(0.,0.,1.));
#609=DIRECTION('',(0.,-1.,0.));
#610=DIRECTION('',(0.,0.,1.));
#611=DIRECTION('',(0.,-1.,0.));
#612=DIRECTION('',(0.,-2.16840434497101E-16,1.));
#613=DIRECTION('',(0.,-1.,-1.27553196763E-16));
#614=DIRECTION('',(6.12323399573677E-17,-1.,0.));
#615=DIRECTION('',(1.,6.12323399573677E-17,0.));
#616=DIRECTION('',(-1.,-6.12323399573677E-17,0.));
#617=DIRECTION('',(0.,0.,1.));
#618=DIRECTION('',(-1.,-6.12323399573677E-17,0.));
#619=DIRECTION('',(0.,0.,1.));
#620=DIRECTION('',(-1.,-6.12323399573677E-17,0.));
#621=DIRECTION('',(6.12323399573677E-17,-1.,0.));
#622=DIRECTION('',(1.,0.,0.));
#623=DIRECTION('',(0.,0.,-1.));
#624=DIRECTION('',(-1.,-6.12323399573677E-17,0.));
#625=DIRECTION('',(6.12323399573677E-17,-1.,0.));
#626=DIRECTION('',(-1.,-6.12323399573677E-17,0.));
#627=DIRECTION('',(-1.,-6.12323399573677E-17,0.));
#628=DIRECTION('',(6.12323399573677E-17,-1.,0.));
#629=DIRECTION('',(1.,0.,0.));
#630=DIRECTION('',(0.,0.,-1.));
#631=DIRECTION('',(-1.,-6.12323399573677E-17,0.));
#632=DIRECTION('',(-1.,-6.12323399573677E-17,0.));
#633=DIRECTION('',(6.12323399573677E-17,-1.,0.));
#634=DIRECTION('',(-1.,-6.12323399573677E-17,0.));
#635=DIRECTION('',(6.12323399573677E-17,-1.,0.));
#636=DIRECTION('',(1.,6.12323399573677E-17,0.));
#637=DIRECTION('',(0.,0.,1.));
#638=DIRECTION('',(0.,0.,1.));
#639=DIRECTION('',(-1.,-6.12323399573677E-17,0.));
#640=DIRECTION('',(-1.,-6.12323399573677E-17,0.));
#641=DIRECTION('',(6.12323399573677E-17,-1.,0.));
#642=DIRECTION('',(1.,0.,0.));
#643=DIRECTION('',(0.,0.,-1.));
#644=DIRECTION('',(-1.,-6.12323399573677E-17,0.));
#645=DIRECTION('',(6.12323399573677E-17,-1.,0.));
#646=DIRECTION('',(-1.,-6.12323399573677E-17,0.));
#647=DIRECTION('',(0.,0.,1.));
#648=DIRECTION('',(1.,0.,0.));
#649=DIRECTION('',(0.,1.,0.));
#650=DIRECTION('',(-6.12323399573677E-17,1.,0.));
#651=DIRECTION('',(-1.,-6.12323399573677E-17,0.));
#652=DIRECTION('',(-1.,-6.12323399573677E-17,0.));
#653=DIRECTION('',(6.12323399573677E-17,-1.,0.));
#654=DIRECTION('',(1.,0.,0.));
#655=DIRECTION('',(0.,0.,-1.));
#656=DIRECTION('',(-1.,-6.12323399573677E-17,0.));
#657=DIRECTION('',(6.12323399573677E-17,-1.,0.));
#658=DIRECTION('',(1.,6.12323399573677E-17,0.));
#659=DIRECTION('',(-6.12323399573677E-17,1.,0.));
#660=DIRECTION('',(6.12323399573677E-17,-1.,0.));
#661=DIRECTION('',(0.,0.,-1.));
#662=DIRECTION('',(6.12323399573677E-17,-1.,0.));
#663=DIRECTION('',(0.,0.,-1.));
#664=DIRECTION('',(-6.12323399573677E-17,1.,-1.0842021724855E-16));
#665=DIRECTION('',(0.,0.,1.));
#666=DIRECTION('',(1.,0.,0.));
#667=DIRECTION('',(0.,0.,-1.));
#668=DIRECTION('',(-1.,0.,0.));
#669=DIRECTION('',(0.,0.,-1.));
#670=DIRECTION('',(-1.,0.,0.));
#671=DIRECTION('',(0.,0.,1.));
#672=DIRECTION('',(1.,0.,0.));
#673=DIRECTION('',(0.,0.,1.));
#674=DIRECTION('',(1.,0.,0.));
#675=DIRECTION('',(1.,0.,0.));
#676=DIRECTION('',(1.,0.,0.));
#677=DIRECTION('',(0.,-1.,0.));
#678=DIRECTION('',(0.,0.,1.));
#679=DIRECTION('',(1.,0.,0.));
#680=DIRECTION('',(0.,0.,1.));
#681=DIRECTION('',(1.,0.,0.));
#682=DIRECTION('',(0.,0.,1.));
#683=DIRECTION('',(1.,0.,0.));
#684=DIRECTION('',(1.,1.86845119739E-16,0.));
#685=DIRECTION('',(-1.,0.,0.));
#686=DIRECTION('',(0.,-1.,0.));
#687=DIRECTION('',(0.,0.,1.));
#688=DIRECTION('',(1.,0.,0.));
#689=DIRECTION('',(0.,0.,-1.));
#690=DIRECTION('',(-1.,0.,0.));
#691=DIRECTION('',(0.,0.,-1.));
#692=DIRECTION('',(-1.,0.,0.));
#693=DIRECTION('',(0.,0.,1.));
#694=DIRECTION('',(1.,0.,0.));
#695=DIRECTION('',(0.,0.,-1.));
#696=DIRECTION('',(-1.,0.,0.));
#697=DIRECTION('',(0.,0.,-1.));
#698=DIRECTION('',(-1.,0.,0.));
#699=DIRECTION('',(0.,0.,1.));
#700=DIRECTION('',(1.,0.,0.));
#701=DIRECTION('',(0.,0.,-1.));
#702=DIRECTION('',(-1.,0.,0.));
#703=DIRECTION('',(0.,0.,-1.));
#704=DIRECTION('',(-1.,0.,0.));
#705=DIRECTION('',(0.,0.,1.));
#706=DIRECTION('',(1.,0.,0.));
#707=DIRECTION('',(0.,-1.,-1.27553196763E-16));
#708=DIRECTION('',(0.,-1.,-1.27553196763E-16));
#709=DIRECTION('',(1.,0.,0.));
#710=DIRECTION('',(1.,1.86845119739E-16,0.));
#711=DIRECTION('',(0.,-1.,0.));
#712=DIRECTION('',(1.,0.,0.));
#713=DIRECTION('',(1.,0.,0.));
#714=DIRECTION('',(0.,-1.,0.));
#715=DIRECTION('',(0.,0.,-1.));
#716=DIRECTION('',(0.,0.,1.));
#717=DIRECTION('',(-1.,0.,0.));
#718=DIRECTION('',(0.,0.,1.));
#719=DIRECTION('',(0.,0.,1.));
#720=DIRECTION('',(1.86845119739E-16,-1.,0.));
#721=DIRECTION('',(1.,1.86845119739E-16,0.));
#722=DIRECTION('',(0.,0.,1.));
#723=DIRECTION('',(1.,0.,0.));
#724=DIRECTION('',(1.,0.,0.));
#725=DIRECTION('',(0.,-1.,0.));
#726=DIRECTION('',(1.,0.,0.));
#727=DIRECTION('',(1.,0.,0.));
#728=DIRECTION('',(0.,0.,-1.));
#729=DIRECTION('',(0.,0.,-1.));
#730=DIRECTION('',(0.,0.,-1.));
#731=DIRECTION('',(0.,1.,0.));
#732=DIRECTION('',(0.,0.,1.));
#733=DIRECTION('',(0.,1.,0.));
#734=DIRECTION('',(0.,0.,1.));
#735=DIRECTION('',(1.,0.,0.));
#736=DIRECTION('',(0.,1.,0.));
#737=DIRECTION('',(0.,0.,1.));
#738=DIRECTION('',(0.,-1.,-1.27553196763E-16));
#739=DIRECTION('',(0.,-2.16840434497101E-16,1.));
#740=DIRECTION('',(0.,1.,0.));
#741=DIRECTION('',(0.,0.,1.));
#742=DIRECTION('',(1.,0.,0.));
#743=DIRECTION('',(0.,-1.27553196763E-16,1.));
#744=DIRECTION('',(0.,-1.,-1.27553196763E-16));
#745=DIRECTION('',(1.,0.,0.));
#746=DIRECTION('',(0.,1.,2.16840434497101E-16));
#747=DIRECTION('',(0.,-2.16840434497101E-16,1.));
#748=DIRECTION('',(0.,0.,1.));
#749=DIRECTION('',(1.,0.,0.));
#750=CARTESIAN_POINT('',(0.,0.,0.));
#751=CARTESIAN_POINT('',(0.005,0.043325,0.003));
#752=CARTESIAN_POINT('',(0.005,0.0374425,0.007));
#753=CARTESIAN_POINT('',(0.005,0.0374425,0.003));
#754=CARTESIAN_POINT('',(0.005,0.0374425,0.011));
#755=CARTESIAN_POINT('',(0.005,0.043325,0.003));
#756=CARTESIAN_POINT('',(0.005,0.07665,0.003));
#757=CARTESIAN_POINT('',(0.005,0.07665,0.003));
#758=CARTESIAN_POINT('',(0.005,0.07665,0.013));
#759=CARTESIAN_POINT('',(0.005,0.043325,0.013));
#760=CARTESIAN_POINT('',(0.005,0.01,0.013));
#761=CARTESIAN_POINT('',(0.005,0.01,0.003));
#762=CARTESIAN_POINT('',(0.005,0.01,0.003));
#763=CARTESIAN_POINT('',(0.005,0.043325,0.003));
#764=CARTESIAN_POINT('',(0.005,0.0102425,0.003));
#765=CARTESIAN_POINT('',(0.005,0.0102425,0.007));
#766=CARTESIAN_POINT('',(0.005,0.0102425,0.011));
#767=CARTESIAN_POINT('',(0.005,0.0238425,0.011));
#768=CARTESIAN_POINT('',(0.005,0.0287625,0.006));
#769=CARTESIAN_POINT('',(0.005,0.0287625,0.004));
#770=CARTESIAN_POINT('',(0.002,0.0287625,0.004));
#771=CARTESIAN_POINT('',(-1.8524514042904E-18,0.0287625,0.004));
#772=CARTESIAN_POINT('',(0.002,0.0287625,0.006));
#773=CARTESIAN_POINT('',(0.002,0.0287625,0.008));
#774=CARTESIAN_POINT('',(0.005,0.0287625,0.008));
#775=CARTESIAN_POINT('',(-1.8524514042904E-18,0.0287625,0.008));
#776=CARTESIAN_POINT('',(-1.8524514042904E-18,0.0287625,0.006));
#777=CARTESIAN_POINT('',(0.005,0.0277625,0.004));
#778=CARTESIAN_POINT('',(0.002,0.0277625,0.004));
#779=CARTESIAN_POINT('',(0.002,0.0277625,0.003));
#780=CARTESIAN_POINT('',(-1.79121906433303E-18,0.0277625,0.004));
#781=CARTESIAN_POINT('',(-1.79121906433303E-18,0.0277625,0.003));
#782=CARTESIAN_POINT('',(0.005,0.0277625,0.003));
#783=CARTESIAN_POINT('',(0.005,0.0197625,0.004));
#784=CARTESIAN_POINT('',(0.002,0.0197625,0.004));
#785=CARTESIAN_POINT('',(0.002,0.0197625,0.003));
#786=CARTESIAN_POINT('',(0.002,0.0187625,0.004));
#787=CARTESIAN_POINT('',(0.005,0.0197625,0.003));
#788=CARTESIAN_POINT('',(-1.30136034467409E-18,0.0197625,0.003));
#789=CARTESIAN_POINT('',(-1.30136034467409E-18,0.0197625,0.004));
#790=CARTESIAN_POINT('',(-1.24012800471672E-18,0.0187625,0.004));
#791=CARTESIAN_POINT('',(0.005,0.0187625,0.004));
#792=CARTESIAN_POINT('',(0.005,0.0187625,0.006));
#793=CARTESIAN_POINT('',(0.002,0.0187625,0.006));
#794=CARTESIAN_POINT('',(0.002,0.0187625,0.008));
#795=CARTESIAN_POINT('',(-1.24012800471672E-18,0.0187625,0.006));
#796=CARTESIAN_POINT('',(-1.24012800471672E-18,0.0187625,0.008));
#797=CARTESIAN_POINT('',(0.005,0.0187625,0.008));
#798=CARTESIAN_POINT('',(0.005,0.0197625,0.008));
#799=CARTESIAN_POINT('',(0.002,0.0197625,0.008));
#800=CARTESIAN_POINT('',(0.002,0.0197625,0.009));
#801=CARTESIAN_POINT('',(-1.30136034467409E-18,0.0197625,0.008));
#802=CARTESIAN_POINT('',(-1.30136034467409E-18,0.0197625,0.009));
#803=CARTESIAN_POINT('',(0.005,0.0197625,0.009));
#804=CARTESIAN_POINT('',(0.005,0.0237625,0.009));
#805=CARTESIAN_POINT('',(0.002,0.0237625,0.009));
#806=CARTESIAN_POINT('',(0.002,0.0277625,0.009));
#807=CARTESIAN_POINT('',(-1.54628970450355E-18,0.0237625,0.009));
#808=CARTESIAN_POINT('',(-1.79121906433303E-18,0.0277625,0.009));
#809=CARTESIAN_POINT('',(0.005,0.0277625,0.009));
#810=CARTESIAN_POINT('',(0.005,0.0277625,0.008));
#811=CARTESIAN_POINT('',(0.002,0.0277625,0.008));
#812=CARTESIAN_POINT('',(-1.79121906433303E-18,0.0277625,0.008));
#813=CARTESIAN_POINT('',(-2.74414735491956E-18,0.043325,0.015));
#814=CARTESIAN_POINT('',(-2.74414735491956E-18,0.043325,0.013));
#815=CARTESIAN_POINT('',(-5.39703848357252E-18,0.08665,0.013));
#816=CARTESIAN_POINT('',(0.,0.,0.013));
#817=CARTESIAN_POINT('',(-6.93889390390723E-18,0.08665,0.015));
#818=CARTESIAN_POINT('',(-6.93889390390723E-18,0.08665,0.));
#819=CARTESIAN_POINT('',(-2.74414735491956E-18,0.043325,0.));
#820=CARTESIAN_POINT('',(0.,0.,0.));
#821=CARTESIAN_POINT('',(0.,0.,0.015));
#822=CARTESIAN_POINT('',(-1.54628970450355E-18,0.0237625,0.003));
#823=CARTESIAN_POINT('',(0.07499,0.08165,0.007));
#824=CARTESIAN_POINT('',(0.07499,0.08165,0.00612875210241004));
#825=CARTESIAN_POINT('',(0.07499,0.08165,0.007));
#826=CARTESIAN_POINT('',(0.07354,0.08165,0.007));
#827=CARTESIAN_POINT('',(0.07499,0.08165,0.015));
#828=CARTESIAN_POINT('',(0.07499,0.08165,0.013));
#829=CARTESIAN_POINT('',(0.07644,0.08165,0.013));
#830=CARTESIAN_POINT('',(0.,0.,0.013));
#831=CARTESIAN_POINT('',(0.039995,0.08665,0.013));
#832=CARTESIAN_POINT('',(0.07999,0.08665,0.013));
#833=CARTESIAN_POINT('',(0.039995,0.,0.013));
#834=CARTESIAN_POINT('',(0.07999,-3.46944695195361E-18,0.013));
#835=CARTESIAN_POINT('',(0.07999,0.043325,0.013));
#836=CARTESIAN_POINT('',(0.07499,0.005,0.013));
#837=CARTESIAN_POINT('',(0.07644,0.005,0.013));
#838=CARTESIAN_POINT('',(0.005,0.005,0.013));
#839=CARTESIAN_POINT('',(0.00645,0.005,0.013));
#840=CARTESIAN_POINT('',(0.005,0.08165,0.013));
#841=CARTESIAN_POINT('',(0.00645,0.08165,0.013));
#842=CARTESIAN_POINT('',(0.037495,0.01,0.013));
#843=CARTESIAN_POINT('',(0.06999,0.01,0.013));
#844=CARTESIAN_POINT('',(0.037495,0.07665,0.013));
#845=CARTESIAN_POINT('',(0.06999,0.07665,0.013));
#846=CARTESIAN_POINT('',(0.06999,0.043325,0.013));
#847=CARTESIAN_POINT('',(0.07499,0.005,0.007));
#848=CARTESIAN_POINT('',(0.07499,0.005,0.00612875210241004));
#849=CARTESIAN_POINT('',(0.07499,0.005,0.007));
#850=CARTESIAN_POINT('',(0.07354,0.005,0.007));
#851=CARTESIAN_POINT('',(0.07499,0.005,0.015));
#852=CARTESIAN_POINT('',(0.005,0.005,0.007));
#853=CARTESIAN_POINT('',(0.005,0.005,0.00612875210241004));
#854=CARTESIAN_POINT('',(0.005,0.005,0.007));
#855=CARTESIAN_POINT('',(0.00355,0.005,0.007));
#856=CARTESIAN_POINT('',(0.005,0.005,0.015));
#857=CARTESIAN_POINT('',(0.005,0.08165,0.007));
#858=CARTESIAN_POINT('',(0.005,0.08165,0.00612875210241004));
#859=CARTESIAN_POINT('',(0.005,0.08165,0.007));
#860=CARTESIAN_POINT('',(0.00355,0.08165,0.007));
#861=CARTESIAN_POINT('',(0.005,0.08165,0.015));
#862=CARTESIAN_POINT('',(0.039995,0.043325,0.003));
#863=CARTESIAN_POINT('',(0.002,0.0238425,0.003));
#864=CARTESIAN_POINT('',(0.002,0.0374425,0.003));
#865=CARTESIAN_POINT('',(0.002,0.0238425,0.003));
#866=CARTESIAN_POINT('',(0.002,0.0102425,0.003));
#867=CARTESIAN_POINT('',(0.002,0.0102425,0.003));
#868=CARTESIAN_POINT('',(0.037495,0.01,0.003));
#869=CARTESIAN_POINT('',(0.06999,0.01,0.003));
#870=CARTESIAN_POINT('',(0.06999,0.043325,0.003));
#871=CARTESIAN_POINT('',(0.06999,0.07665,0.003));
#872=CARTESIAN_POINT('',(0.037495,0.07665,0.003));
#873=CARTESIAN_POINT('',(0.002,0.0374425,0.003));
#874=CARTESIAN_POINT('',(0.037495,0.07665,0.003));
#875=CARTESIAN_POINT('',(0.06999,0.07665,0.003));
#876=CARTESIAN_POINT('',(0.06999,0.043325,0.003));
#877=CARTESIAN_POINT('',(0.06999,0.01,0.003));
#878=CARTESIAN_POINT('',(0.037495,0.01,0.003));
#879=CARTESIAN_POINT('',(0.039995,0.043325,0.));
#880=CARTESIAN_POINT('',(0.039995,0.08665,0.));
#881=CARTESIAN_POINT('',(0.07999,0.08665,0.));
#882=CARTESIAN_POINT('',(0.07999,0.043325,0.));
#883=CARTESIAN_POINT('',(0.07999,-3.46944695195361E-18,0.));
#884=CARTESIAN_POINT('',(0.039995,0.,0.));
#885=CARTESIAN_POINT('',(0.07999,0.043325,0.015));
#886=CARTESIAN_POINT('',(0.07999,0.08665,0.015));
#887=CARTESIAN_POINT('',(0.07999,-3.46944695195361E-18,0.015));
#888=CARTESIAN_POINT('',(0.039995,0.,0.015));
#889=CARTESIAN_POINT('',(0.039995,0.08665,0.015));
#890=CARTESIAN_POINT('',(0.002,0.043325,0.008));
#891=CARTESIAN_POINT('',(0.002,0.0374425,0.007));
#892=CARTESIAN_POINT('',(0.002,0.0374425,0.011));
#893=CARTESIAN_POINT('',(0.002,0.0238425,0.011));
#894=CARTESIAN_POINT('',(0.002,0.0102425,0.011));
#895=CARTESIAN_POINT('',(0.002,0.0102425,0.007));
#896=CARTESIAN_POINT('',(0.002,0.0374425,0.007));
#897=CARTESIAN_POINT('',(0.002,0.0374425,0.011));
#898=CARTESIAN_POINT('',(0.002,0.0238425,0.011));
#899=CARTESIAN_POINT('',(0.002,0.0102425,0.011));
#900=CARTESIAN_POINT('',(0.002,0.0102425,0.007));
#901=CARTESIAN_POINT('',(-0.0793876741487054,-0.013426108378906,-0.0143603609760957));
#902=MECHANICAL_DESIGN_GEOMETRIC_PRESENTATION_REPRESENTATION('',(#541),
#903);
#903=(
GEOMETRIC_REPRESENTATION_CONTEXT(3)
GLOBAL_UNCERTAINTY_ASSIGNED_CONTEXT((#905))
GLOBAL_UNIT_ASSIGNED_CONTEXT((#909,#908,#907))
REPRESENTATION_CONTEXT('Bottom Part','TOP_LEVEL_ASSEMBLY_PART')
);
#904=(
GEOMETRIC_REPRESENTATION_CONTEXT(3)
GLOBAL_UNCERTAINTY_ASSIGNED_CONTEXT((#906))
GLOBAL_UNIT_ASSIGNED_CONTEXT((#909,#908,#907))
REPRESENTATION_CONTEXT('Part 1','COMPONENT_PART')
);
#905=UNCERTAINTY_MEASURE_WITH_UNIT(LENGTH_MEASURE(1.E-8),#909,
'DISTANCE_ACCURACY_VALUE','Maximum Tolerance applied to model');
#906=UNCERTAINTY_MEASURE_WITH_UNIT(LENGTH_MEASURE(1.E-8),#909,
'DISTANCE_ACCURACY_VALUE','Maximum Tolerance applied to model');
#907=(
NAMED_UNIT(*)
SI_UNIT($,.STERADIAN.)
SOLID_ANGLE_UNIT()
);
#908=(
NAMED_UNIT(*)
PLANE_ANGLE_UNIT()
SI_UNIT($,.RADIAN.)
);
#909=(
LENGTH_UNIT()
NAMED_UNIT(*)
SI_UNIT($,.METRE.)
);
#910=PRODUCT_DEFINITION_SHAPE('','',#913);
#911=PRODUCT_DEFINITION_SHAPE('','',#914);
#912=PRODUCT_DEFINITION_SHAPE(' ','NAUO PRDDFN',#11);
#913=PRODUCT_DEFINITION('','',#917,#915);
#914=PRODUCT_DEFINITION('','',#918,#916);
#915=PRODUCT_DEFINITION_CONTEXT('',#928,'design');
#916=PRODUCT_DEFINITION_CONTEXT('',#928,'design');
#917=PRODUCT_DEFINITION_FORMATION_WITH_SPECIFIED_SOURCE('','',#921,
 .NOT_KNOWN.);
#918=PRODUCT_DEFINITION_FORMATION_WITH_SPECIFIED_SOURCE('','',#922,
 .NOT_KNOWN.);
#919=PRODUCT_RELATED_PRODUCT_CATEGORY('','',(#921));
#920=PRODUCT_RELATED_PRODUCT_CATEGORY('','',(#922));
#921=PRODUCT('Bottom Part','Bottom Part','Bottom Part',(#925));
#922=PRODUCT('Part 1','Part 1','Part 1',(#926));
#923=PRODUCT_CATEGORY('','');
#924=PRODUCT_CATEGORY('','');
#925=PRODUCT_CONTEXT('',#928,'mechanical');
#926=PRODUCT_CONTEXT('',#928,'mechanical');
#927=APPLICATION_PROTOCOL_DEFINITION('international standard',
'ap242_managed_model_based_3d_engineering',2020,#928);
#928=APPLICATION_CONTEXT('managed model based 3d engineering');
ENDSEC;
END-ISO-10303-21;
